<svg xmlns="http://www.w3.org/2000/svg" width="1200" height="720" viewBox="0 0 1200 720">
<rect width="100%" height="100%" fill="#fbfaf7"/>
<text x="90" y="34" font-family="Arial, sans-serif" font-size="24" font-weight="700" fill="#1f2933">Forward Annual Beat vs S&amp;P 500 TR</text>
<text x="90" y="58" font-family="Arial, sans-serif" font-size="13" fill="#5b6572">Time-weighted annualized outperformance, windows from 0.25 to 10 years</text>
<line x1="90" y1="518.18" x2="1160" y2="518.18" stroke="#c9c2b8" stroke-width="1.5"/>
<text x="78" y="522.18" text-anchor="end" font-family="Arial, sans-serif" font-size="12" fill="#56606b">+0%</text>
<line x1="90" y1="334.58" x2="1160" y2="334.58" stroke="#e3ded6" stroke-width="1"/>
<text x="78" y="338.58" text-anchor="end" font-family="Arial, sans-serif" font-size="12" fill="#56606b">+50%</text>
<line x1="90" y1="150.99" x2="1160" y2="150.99" stroke="#e3ded6" stroke-width="1"/>
<text x="78" y="154.99" text-anchor="end" font-family="Arial, sans-serif" font-size="12" fill="#56606b">+100%</text>
<line x1="172.31" y1="70" x2="172.31" y2="630" stroke="#eee9e1" stroke-width="1"/>
<text x="172.31" y="658" text-anchor="middle" font-family="Arial, sans-serif" font-size="12" fill="#56606b">1y</text>
<line x1="282.05" y1="70" x2="282.05" y2="630" stroke="#eee9e1" stroke-width="1"/>
<text x="282.05" y="658" text-anchor="middle" font-family="Arial, sans-serif" font-size="12" fill="#56606b">2y</text>
<line x1="391.79" y1="70" x2="391.79" y2="630" stroke="#eee9e1" stroke-width="1"/>
<text x="391.79" y="658" text-anchor="middle" font-family="Arial, sans-serif" font-size="12" fill="#56606b">3y</text>
<line x1="501.54" y1="70" x2="501.54" y2="630" stroke="#eee9e1" stroke-width="1"/>
<text x="501.54" y="658" text-anchor="middle" font-family="Arial, sans-serif" font-size="12" fill="#56606b">4y</text>
<line x1="611.28" y1="70" x2="611.28" y2="630" stroke="#eee9e1" stroke-width="1"/>
<text x="611.28" y="658" text-anchor="middle" font-family="Arial, sans-serif" font-size="12" fill="#56606b">5y</text>
<line x1="721.03" y1="70" x2="721.03" y2="630" stroke="#eee9e1" stroke-width="1"/>
<text x="721.03" y="658" text-anchor="middle" font-family="Arial, sans-serif" font-size="12" fill="#56606b">6y</text>
<line x1="830.77" y1="70" x2="830.77" y2="630" stroke="#eee9e1" stroke-width="1"/>
<text x="830.77" y="658" text-anchor="middle" font-family="Arial, sans-serif" font-size="12" fill="#56606b">7y</text>
<line x1="940.51" y1="70" x2="940.51" y2="630" stroke="#eee9e1" stroke-width="1"/>
<text x="940.51" y="658" text-anchor="middle" font-family="Arial, sans-serif" font-size="12" fill="#56606b">8y</text>
<line x1="1050.26" y1="70" x2="1050.26" y2="630" stroke="#eee9e1" stroke-width="1"/>
<text x="1050.26" y="658" text-anchor="middle" font-family="Arial, sans-serif" font-size="12" fill="#56606b">9y</text>
<line x1="1160.00" y1="70" x2="1160.00" y2="630" stroke="#eee9e1" stroke-width="1"/>
<text x="1160.00" y="658" text-anchor="middle" font-family="Arial, sans-serif" font-size="12" fill="#56606b">10y</text>
<rect x="90" y="70" width="1070" height="560" fill="none" stroke="#d5cec3" stroke-width="1"/>
<polyline points="90.00,262.45 117.44,383.47 144.87,480.08 172.31,510.89 199.74,522.39 227.18,531.70 254.62,538.30 282.05,541.92 309.49,543.97 336.92,545.26 364.36,546.73 391.79,547.91 419.23,548.82 446.67,549.00 474.10,550.44 501.54,551.04 528.97,551.24 556.41,551.60 583.85,551.58 611.28,551.23 638.72,551.65 666.15,551.93 693.59,551.89 721.03,552.22 748.46,551.92 775.90,552.03 803.33,552.28 830.77,552.29 858.21,552.37 885.64,552.38 913.08,552.38 940.51,552.27 967.95,552.30 995.38,552.33 1022.82,552.19 1050.26,552.21 1077.69,552.05 1105.13,551.98 1132.56,551.97 1160.00,552.04" fill="none" stroke="#1b7f5c" stroke-width="3" stroke-linejoin="round" stroke-linecap="round"/>
<circle cx="90.00" cy="262.45" r="3" fill="#1b7f5c"/>
<circle cx="117.44" cy="383.47" r="3" fill="#1b7f5c"/>
<circle cx="144.87" cy="480.08" r="3" fill="#1b7f5c"/>
<circle cx="172.31" cy="510.89" r="3" fill="#1b7f5c"/>
<circle cx="199.74" cy="522.39" r="3" fill="#1b7f5c"/>
<circle cx="227.18" cy="531.70" r="3" fill="#1b7f5c"/>
<circle cx="254.62" cy="538.30" r="3" fill="#1b7f5c"/>
<circle cx="282.05" cy="541.92" r="3" fill="#1b7f5c"/>
<circle cx="309.49" cy="543.97" r="3" fill="#1b7f5c"/>
<circle cx="336.92" cy="545.26" r="3" fill="#1b7f5c"/>
<circle cx="364.36" cy="546.73" r="3" fill="#1b7f5c"/>
<circle cx="391.79" cy="547.91" r="3" fill="#1b7f5c"/>
<circle cx="419.23" cy="548.82" r="3" fill="#1b7f5c"/>
<circle cx="446.67" cy="549.00" r="3" fill="#1b7f5c"/>
<circle cx="474.10" cy="550.44" r="3" fill="#1b7f5c"/>
<circle cx="501.54" cy="551.04" r="3" fill="#1b7f5c"/>
<circle cx="528.97" cy="551.24" r="3" fill="#1b7f5c"/>
<circle cx="556.41" cy="551.60" r="3" fill="#1b7f5c"/>
<circle cx="583.85" cy="551.58" r="3" fill="#1b7f5c"/>
<circle cx="611.28" cy="551.23" r="3" fill="#1b7f5c"/>
<circle cx="638.72" cy="551.65" r="3" fill="#1b7f5c"/>
<circle cx="666.15" cy="551.93" r="3" fill="#1b7f5c"/>
<circle cx="693.59" cy="551.89" r="3" fill="#1b7f5c"/>
<circle cx="721.03" cy="552.22" r="3" fill="#1b7f5c"/>
<circle cx="748.46" cy="551.92" r="3" fill="#1b7f5c"/>
<circle cx="775.90" cy="552.03" r="3" fill="#1b7f5c"/>
<circle cx="803.33" cy="552.28" r="3" fill="#1b7f5c"/>
<circle cx="830.77" cy="552.29" r="3" fill="#1b7f5c"/>
<circle cx="858.21" cy="552.37" r="3" fill="#1b7f5c"/>
<circle cx="885.64" cy="552.38" r="3" fill="#1b7f5c"/>
<circle cx="913.08" cy="552.38" r="3" fill="#1b7f5c"/>
<circle cx="940.51" cy="552.27" r="3" fill="#1b7f5c"/>
<circle cx="967.95" cy="552.30" r="3" fill="#1b7f5c"/>
<circle cx="995.38" cy="552.33" r="3" fill="#1b7f5c"/>
<circle cx="1022.82" cy="552.19" r="3" fill="#1b7f5c"/>
<circle cx="1050.26" cy="552.21" r="3" fill="#1b7f5c"/>
<circle cx="1077.69" cy="552.05" r="3" fill="#1b7f5c"/>
<circle cx="1105.13" cy="551.98" r="3" fill="#1b7f5c"/>
<circle cx="1132.56" cy="551.97" r="3" fill="#1b7f5c"/>
<circle cx="1160.00" cy="552.04" r="3" fill="#1b7f5c"/>
<polyline points="90.00,481.50 117.44,545.73 144.87,563.16 172.31,566.88 199.74,574.06 227.18,573.49 254.62,573.93 282.05,573.02 309.49,575.29 336.92,575.81 364.36,574.43 391.79,574.08 419.23,573.93 446.67,574.47 474.10,574.30 501.54,572.97 528.97,574.17 556.41,572.91 583.85,571.93 611.28,571.72 638.72,572.40 666.15,572.67 693.59,572.10 721.03,571.33 748.46,570.75 775.90,571.28 803.33,570.56 830.77,570.78 858.21,571.76 885.64,570.78 913.08,571.23 940.51,571.74 967.95,571.08 995.38,571.18 1022.82,571.48 1050.26,571.47 1077.69,570.84 1105.13,571.04 1132.56,571.08 1160.00,571.55" fill="none" stroke="#b23a48" stroke-width="3" stroke-linejoin="round" stroke-linecap="round"/>
<circle cx="90.00" cy="481.50" r="3" fill="#b23a48"/>
<circle cx="117.44" cy="545.73" r="3" fill="#b23a48"/>
<circle cx="144.87" cy="563.16" r="3" fill="#b23a48"/>
<circle cx="172.31" cy="566.88" r="3" fill="#b23a48"/>
<circle cx="199.74" cy="574.06" r="3" fill="#b23a48"/>
<circle cx="227.18" cy="573.49" r="3" fill="#b23a48"/>
<circle cx="254.62" cy="573.93" r="3" fill="#b23a48"/>
<circle cx="282.05" cy="573.02" r="3" fill="#b23a48"/>
<circle cx="309.49" cy="575.29" r="3" fill="#b23a48"/>
<circle cx="336.92" cy="575.81" r="3" fill="#b23a48"/>
<circle cx="364.36" cy="574.43" r="3" fill="#b23a48"/>
<circle cx="391.79" cy="574.08" r="3" fill="#b23a48"/>
<circle cx="419.23" cy="573.93" r="3" fill="#b23a48"/>
<circle cx="446.67" cy="574.47" r="3" fill="#b23a48"/>
<circle cx="474.10" cy="574.30" r="3" fill="#b23a48"/>
<circle cx="501.54" cy="572.97" r="3" fill="#b23a48"/>
<circle cx="528.97" cy="574.17" r="3" fill="#b23a48"/>
<circle cx="556.41" cy="572.91" r="3" fill="#b23a48"/>
<circle cx="583.85" cy="571.93" r="3" fill="#b23a48"/>
<circle cx="611.28" cy="571.72" r="3" fill="#b23a48"/>
<circle cx="638.72" cy="572.40" r="3" fill="#b23a48"/>
<circle cx="666.15" cy="572.67" r="3" fill="#b23a48"/>
<circle cx="693.59" cy="572.10" r="3" fill="#b23a48"/>
<circle cx="721.03" cy="571.33" r="3" fill="#b23a48"/>
<circle cx="748.46" cy="570.75" r="3" fill="#b23a48"/>
<circle cx="775.90" cy="571.28" r="3" fill="#b23a48"/>
<circle cx="803.33" cy="570.56" r="3" fill="#b23a48"/>
<circle cx="830.77" cy="570.78" r="3" fill="#b23a48"/>
<circle cx="858.21" cy="571.76" r="3" fill="#b23a48"/>
<circle cx="885.64" cy="570.78" r="3" fill="#b23a48"/>
<circle cx="913.08" cy="571.23" r="3" fill="#b23a48"/>
<circle cx="940.51" cy="571.74" r="3" fill="#b23a48"/>
<circle cx="967.95" cy="571.08" r="3" fill="#b23a48"/>
<circle cx="995.38" cy="571.18" r="3" fill="#b23a48"/>
<circle cx="1022.82" cy="571.48" r="3" fill="#b23a48"/>
<circle cx="1050.26" cy="571.47" r="3" fill="#b23a48"/>
<circle cx="1077.69" cy="570.84" r="3" fill="#b23a48"/>
<circle cx="1105.13" cy="571.04" r="3" fill="#b23a48"/>
<circle cx="1132.56" cy="571.08" r="3" fill="#b23a48"/>
<circle cx="1160.00" cy="571.55" r="3" fill="#b23a48"/>
<polyline points="90.00,124.19 117.44,382.83 144.87,418.02 172.31,455.45 199.74,477.09 227.18,486.68 254.62,487.72 282.05,490.22 309.49,490.61 336.92,486.76 364.36,491.64 391.79,495.15 419.23,499.00 446.67,503.33 474.10,507.50 501.54,511.99 528.97,514.61 556.41,517.93 583.85,517.65 611.28,517.15 638.72,518.60 666.15,518.95 693.59,519.51 721.03,517.41 748.46,517.44 775.90,518.26 803.33,520.17 830.77,521.36 858.21,522.65 885.64,523.62 913.08,524.10 940.51,523.31 967.95,524.99 995.38,526.62 1022.82,526.49 1050.26,527.00 1077.69,527.87 1105.13,527.36 1132.56,528.17 1160.00,527.70" fill="none" stroke="#2468b2" stroke-width="3" stroke-linejoin="round" stroke-linecap="round"/>
<circle cx="90.00" cy="124.19" r="3" fill="#2468b2"/>
<circle cx="117.44" cy="382.83" r="3" fill="#2468b2"/>
<circle cx="144.87" cy="418.02" r="3" fill="#2468b2"/>
<circle cx="172.31" cy="455.45" r="3" fill="#2468b2"/>
<circle cx="199.74" cy="477.09" r="3" fill="#2468b2"/>
<circle cx="227.18" cy="486.68" r="3" fill="#2468b2"/>
<circle cx="254.62" cy="487.72" r="3" fill="#2468b2"/>
<circle cx="282.05" cy="490.22" r="3" fill="#2468b2"/>
<circle cx="309.49" cy="490.61" r="3" fill="#2468b2"/>
<circle cx="336.92" cy="486.76" r="3" fill="#2468b2"/>
<circle cx="364.36" cy="491.64" r="3" fill="#2468b2"/>
<circle cx="391.79" cy="495.15" r="3" fill="#2468b2"/>
<circle cx="419.23" cy="499.00" r="3" fill="#2468b2"/>
<circle cx="446.67" cy="503.33" r="3" fill="#2468b2"/>
<circle cx="474.10" cy="507.50" r="3" fill="#2468b2"/>
<circle cx="501.54" cy="511.99" r="3" fill="#2468b2"/>
<circle cx="528.97" cy="514.61" r="3" fill="#2468b2"/>
<circle cx="556.41" cy="517.93" r="3" fill="#2468b2"/>
<circle cx="583.85" cy="517.65" r="3" fill="#2468b2"/>
<circle cx="611.28" cy="517.15" r="3" fill="#2468b2"/>
<circle cx="638.72" cy="518.60" r="3" fill="#2468b2"/>
<circle cx="666.15" cy="518.95" r="3" fill="#2468b2"/>
<circle cx="693.59" cy="519.51" r="3" fill="#2468b2"/>
<circle cx="721.03" cy="517.41" r="3" fill="#2468b2"/>
<circle cx="748.46" cy="517.44" r="3" fill="#2468b2"/>
<circle cx="775.90" cy="518.26" r="3" fill="#2468b2"/>
<circle cx="803.33" cy="520.17" r="3" fill="#2468b2"/>
<circle cx="830.77" cy="521.36" r="3" fill="#2468b2"/>
<circle cx="858.21" cy="522.65" r="3" fill="#2468b2"/>
<circle cx="885.64" cy="523.62" r="3" fill="#2468b2"/>
<circle cx="913.08" cy="524.10" r="3" fill="#2468b2"/>
<circle cx="940.51" cy="523.31" r="3" fill="#2468b2"/>
<circle cx="967.95" cy="524.99" r="3" fill="#2468b2"/>
<circle cx="995.38" cy="526.62" r="3" fill="#2468b2"/>
<circle cx="1022.82" cy="526.49" r="3" fill="#2468b2"/>
<circle cx="1050.26" cy="527.00" r="3" fill="#2468b2"/>
<circle cx="1077.69" cy="527.87" r="3" fill="#2468b2"/>
<circle cx="1105.13" cy="527.36" r="3" fill="#2468b2"/>
<circle cx="1132.56" cy="528.17" r="3" fill="#2468b2"/>
<circle cx="1160.00" cy="527.70" r="3" fill="#2468b2"/>
<polyline points="90.00,395.31 117.44,499.80 144.87,530.48 172.31,533.47 199.74,551.85 227.18,551.67 254.62,557.32 282.05,553.21 309.49,553.60 336.92,547.92 364.36,549.94 391.79,546.95 419.23,547.15 446.67,551.81 474.10,557.71 501.54,555.01 528.97,566.92 556.41,559.38 583.85,559.51 611.28,558.48 638.72,562.09 666.15,560.14 693.59,565.89 721.03,565.20 748.46,561.20 775.90,560.31 803.33,562.87 830.77,560.96 858.21,559.90 885.64,560.75 913.08,561.07 940.51,565.87 967.95,560.98 995.38,562.78 1022.82,560.79 1050.26,558.66 1077.69,560.97 1105.13,562.77 1132.56,561.66 1160.00,562.06" fill="none" stroke="#8a5fbf" stroke-width="3" stroke-linejoin="round" stroke-linecap="round"/>
<circle cx="90.00" cy="395.31" r="3" fill="#8a5fbf"/>
<circle cx="117.44" cy="499.80" r="3" fill="#8a5fbf"/>
<circle cx="144.87" cy="530.48" r="3" fill="#8a5fbf"/>
<circle cx="172.31" cy="533.47" r="3" fill="#8a5fbf"/>
<circle cx="199.74" cy="551.85" r="3" fill="#8a5fbf"/>
<circle cx="227.18" cy="551.67" r="3" fill="#8a5fbf"/>
<circle cx="254.62" cy="557.32" r="3" fill="#8a5fbf"/>
<circle cx="282.05" cy="553.21" r="3" fill="#8a5fbf"/>
<circle cx="309.49" cy="553.60" r="3" fill="#8a5fbf"/>
<circle cx="336.92" cy="547.92" r="3" fill="#8a5fbf"/>
<circle cx="364.36" cy="549.94" r="3" fill="#8a5fbf"/>
<circle cx="391.79" cy="546.95" r="3" fill="#8a5fbf"/>
<circle cx="419.23" cy="547.15" r="3" fill="#8a5fbf"/>
<circle cx="446.67" cy="551.81" r="3" fill="#8a5fbf"/>
<circle cx="474.10" cy="557.71" r="3" fill="#8a5fbf"/>
<circle cx="501.54" cy="555.01" r="3" fill="#8a5fbf"/>
<circle cx="528.97" cy="566.92" r="3" fill="#8a5fbf"/>
<circle cx="556.41" cy="559.38" r="3" fill="#8a5fbf"/>
<circle cx="583.85" cy="559.51" r="3" fill="#8a5fbf"/>
<circle cx="611.28" cy="558.48" r="3" fill="#8a5fbf"/>
<circle cx="638.72" cy="562.09" r="3" fill="#8a5fbf"/>
<circle cx="666.15" cy="560.14" r="3" fill="#8a5fbf"/>
<circle cx="693.59" cy="565.89" r="3" fill="#8a5fbf"/>
<circle cx="721.03" cy="565.20" r="3" fill="#8a5fbf"/>
<circle cx="748.46" cy="561.20" r="3" fill="#8a5fbf"/>
<circle cx="775.90" cy="560.31" r="3" fill="#8a5fbf"/>
<circle cx="803.33" cy="562.87" r="3" fill="#8a5fbf"/>
<circle cx="830.77" cy="560.96" r="3" fill="#8a5fbf"/>
<circle cx="858.21" cy="559.90" r="3" fill="#8a5fbf"/>
<circle cx="885.64" cy="560.75" r="3" fill="#8a5fbf"/>
<circle cx="913.08" cy="561.07" r="3" fill="#8a5fbf"/>
<circle cx="940.51" cy="565.87" r="3" fill="#8a5fbf"/>
<circle cx="967.95" cy="560.98" r="3" fill="#8a5fbf"/>
<circle cx="995.38" cy="562.78" r="3" fill="#8a5fbf"/>
<circle cx="1022.82" cy="560.79" r="3" fill="#8a5fbf"/>
<circle cx="1050.26" cy="558.66" r="3" fill="#8a5fbf"/>
<circle cx="1077.69" cy="560.97" r="3" fill="#8a5fbf"/>
<circle cx="1105.13" cy="562.77" r="3" fill="#8a5fbf"/>
<circle cx="1132.56" cy="561.66" r="3" fill="#8a5fbf"/>
<circle cx="1160.00" cy="562.06" r="3" fill="#8a5fbf"/>
<line x1="730" y1="24" x2="758" y2="24" stroke="#1b7f5c" stroke-width="4" stroke-linecap="round"/>
<text x="768" y="28" font-family="Arial, sans-serif" font-size="13" fill="#28313b">All long</text>
<line x1="920" y1="24" x2="948" y2="24" stroke="#b23a48" stroke-width="4" stroke-linecap="round"/>
<text x="958" y="28" font-family="Arial, sans-serif" font-size="13" fill="#28313b">All short</text>
<line x1="730" y1="48" x2="758" y2="48" stroke="#2468b2" stroke-width="4" stroke-linecap="round"/>
<text x="768" y="52" font-family="Arial, sans-serif" font-size="13" fill="#28313b">Winner long</text>
<line x1="920" y1="48" x2="948" y2="48" stroke="#8a5fbf" stroke-width="4" stroke-linecap="round"/>
<text x="958" y="52" font-family="Arial, sans-serif" font-size="13" fill="#28313b">Winner short</text>
<text x="625.0" y="694" text-anchor="middle" font-family="Arial, sans-serif" font-size="14" fill="#38414c">Forward holding window</text>
<text x="26" y="350.0" text-anchor="middle" font-family="Arial, sans-serif" font-size="14" fill="#38414c" transform="rotate(-90 26 350.0)">Annual beat</text>
</svg>
