<svg xmlns="http://www.w3.org/2000/svg" width="1200" height="720" viewBox="0 0 1200 720">
<rect width="100%" height="100%" fill="#fbfaf7"/>
<text x="90" y="34" font-family="Arial, sans-serif" font-size="24" font-weight="700" fill="#1f2933">Forward Annual Beat vs S&amp;P 500 TR</text>
<text x="90" y="58" font-family="Arial, sans-serif" font-size="13" fill="#5b6572">Time-weighted annualized outperformance, windows from 1 quarter to 5 years</text>
<line x1="90" y1="628.26" x2="1160" y2="628.26" stroke="#e3ded6" stroke-width="1"/>
<text x="78" y="632.26" text-anchor="end" font-family="Arial, sans-serif" font-size="12" fill="#56606b">-170%</text>
<line x1="90" y1="624.85" x2="1160" y2="624.85" stroke="#e3ded6" stroke-width="1"/>
<text x="78" y="628.85" text-anchor="end" font-family="Arial, sans-serif" font-size="12" fill="#56606b">-160%</text>
<line x1="90" y1="621.44" x2="1160" y2="621.44" stroke="#e3ded6" stroke-width="1"/>
<text x="78" y="625.44" text-anchor="end" font-family="Arial, sans-serif" font-size="12" fill="#56606b">-150%</text>
<line x1="90" y1="618.04" x2="1160" y2="618.04" stroke="#e3ded6" stroke-width="1"/>
<text x="78" y="622.04" text-anchor="end" font-family="Arial, sans-serif" font-size="12" fill="#56606b">-140%</text>
<line x1="90" y1="614.63" x2="1160" y2="614.63" stroke="#e3ded6" stroke-width="1"/>
<text x="78" y="618.63" text-anchor="end" font-family="Arial, sans-serif" font-size="12" fill="#56606b">-130%</text>
<line x1="90" y1="611.22" x2="1160" y2="611.22" stroke="#e3ded6" stroke-width="1"/>
<text x="78" y="615.22" text-anchor="end" font-family="Arial, sans-serif" font-size="12" fill="#56606b">-120%</text>
<line x1="90" y1="607.82" x2="1160" y2="607.82" stroke="#e3ded6" stroke-width="1"/>
<text x="78" y="611.82" text-anchor="end" font-family="Arial, sans-serif" font-size="12" fill="#56606b">-110%</text>
<line x1="90" y1="604.41" x2="1160" y2="604.41" stroke="#e3ded6" stroke-width="1"/>
<text x="78" y="608.41" text-anchor="end" font-family="Arial, sans-serif" font-size="12" fill="#56606b">-100%</text>
<line x1="90" y1="601.00" x2="1160" y2="601.00" stroke="#e3ded6" stroke-width="1"/>
<text x="78" y="605.00" text-anchor="end" font-family="Arial, sans-serif" font-size="12" fill="#56606b">-90%</text>
<line x1="90" y1="597.59" x2="1160" y2="597.59" stroke="#e3ded6" stroke-width="1"/>
<text x="78" y="601.59" text-anchor="end" font-family="Arial, sans-serif" font-size="12" fill="#56606b">-80%</text>
<line x1="90" y1="594.19" x2="1160" y2="594.19" stroke="#e3ded6" stroke-width="1"/>
<text x="78" y="598.19" text-anchor="end" font-family="Arial, sans-serif" font-size="12" fill="#56606b">-70%</text>
<line x1="90" y1="590.78" x2="1160" y2="590.78" stroke="#e3ded6" stroke-width="1"/>
<text x="78" y="594.78" text-anchor="end" font-family="Arial, sans-serif" font-size="12" fill="#56606b">-60%</text>
<line x1="90" y1="587.37" x2="1160" y2="587.37" stroke="#e3ded6" stroke-width="1"/>
<text x="78" y="591.37" text-anchor="end" font-family="Arial, sans-serif" font-size="12" fill="#56606b">-50%</text>
<line x1="90" y1="583.96" x2="1160" y2="583.96" stroke="#e3ded6" stroke-width="1"/>
<text x="78" y="587.96" text-anchor="end" font-family="Arial, sans-serif" font-size="12" fill="#56606b">-40%</text>
<line x1="90" y1="580.56" x2="1160" y2="580.56" stroke="#e3ded6" stroke-width="1"/>
<text x="78" y="584.56" text-anchor="end" font-family="Arial, sans-serif" font-size="12" fill="#56606b">-30%</text>
<line x1="90" y1="577.15" x2="1160" y2="577.15" stroke="#e3ded6" stroke-width="1"/>
<text x="78" y="581.15" text-anchor="end" font-family="Arial, sans-serif" font-size="12" fill="#56606b">-20%</text>
<line x1="90" y1="573.74" x2="1160" y2="573.74" stroke="#e3ded6" stroke-width="1"/>
<text x="78" y="577.74" text-anchor="end" font-family="Arial, sans-serif" font-size="12" fill="#56606b">-10%</text>
<line x1="90" y1="570.33" x2="1160" y2="570.33" stroke="#c9c2b8" stroke-width="1.5"/>
<text x="78" y="574.33" text-anchor="end" font-family="Arial, sans-serif" font-size="12" fill="#56606b">+0%</text>
<line x1="90" y1="566.93" x2="1160" y2="566.93" stroke="#e3ded6" stroke-width="1"/>
<text x="78" y="570.93" text-anchor="end" font-family="Arial, sans-serif" font-size="12" fill="#56606b">+10%</text>
<line x1="90" y1="563.52" x2="1160" y2="563.52" stroke="#e3ded6" stroke-width="1"/>
<text x="78" y="567.52" text-anchor="end" font-family="Arial, sans-serif" font-size="12" fill="#56606b">+20%</text>
<line x1="90" y1="560.11" x2="1160" y2="560.11" stroke="#e3ded6" stroke-width="1"/>
<text x="78" y="564.11" text-anchor="end" font-family="Arial, sans-serif" font-size="12" fill="#56606b">+30%</text>
<line x1="90" y1="556.70" x2="1160" y2="556.70" stroke="#e3ded6" stroke-width="1"/>
<text x="78" y="560.70" text-anchor="end" font-family="Arial, sans-serif" font-size="12" fill="#56606b">+40%</text>
<line x1="90" y1="553.30" x2="1160" y2="553.30" stroke="#e3ded6" stroke-width="1"/>
<text x="78" y="557.30" text-anchor="end" font-family="Arial, sans-serif" font-size="12" fill="#56606b">+50%</text>
<line x1="90" y1="549.89" x2="1160" y2="549.89" stroke="#e3ded6" stroke-width="1"/>
<text x="78" y="553.89" text-anchor="end" font-family="Arial, sans-serif" font-size="12" fill="#56606b">+60%</text>
<line x1="90" y1="546.48" x2="1160" y2="546.48" stroke="#e3ded6" stroke-width="1"/>
<text x="78" y="550.48" text-anchor="end" font-family="Arial, sans-serif" font-size="12" fill="#56606b">+70%</text>
<line x1="90" y1="543.07" x2="1160" y2="543.07" stroke="#e3ded6" stroke-width="1"/>
<text x="78" y="547.07" text-anchor="end" font-family="Arial, sans-serif" font-size="12" fill="#56606b">+80%</text>
<line x1="90" y1="539.67" x2="1160" y2="539.67" stroke="#e3ded6" stroke-width="1"/>
<text x="78" y="543.67" text-anchor="end" font-family="Arial, sans-serif" font-size="12" fill="#56606b">+90%</text>
<line x1="90" y1="536.26" x2="1160" y2="536.26" stroke="#e3ded6" stroke-width="1"/>
<text x="78" y="540.26" text-anchor="end" font-family="Arial, sans-serif" font-size="12" fill="#56606b">+100%</text>
<line x1="90" y1="532.85" x2="1160" y2="532.85" stroke="#e3ded6" stroke-width="1"/>
<text x="78" y="536.85" text-anchor="end" font-family="Arial, sans-serif" font-size="12" fill="#56606b">+110%</text>
<line x1="90" y1="529.44" x2="1160" y2="529.44" stroke="#e3ded6" stroke-width="1"/>
<text x="78" y="533.44" text-anchor="end" font-family="Arial, sans-serif" font-size="12" fill="#56606b">+120%</text>
<line x1="90" y1="526.04" x2="1160" y2="526.04" stroke="#e3ded6" stroke-width="1"/>
<text x="78" y="530.04" text-anchor="end" font-family="Arial, sans-serif" font-size="12" fill="#56606b">+130%</text>
<line x1="90" y1="522.63" x2="1160" y2="522.63" stroke="#e3ded6" stroke-width="1"/>
<text x="78" y="526.63" text-anchor="end" font-family="Arial, sans-serif" font-size="12" fill="#56606b">+140%</text>
<line x1="90" y1="519.22" x2="1160" y2="519.22" stroke="#e3ded6" stroke-width="1"/>
<text x="78" y="523.22" text-anchor="end" font-family="Arial, sans-serif" font-size="12" fill="#56606b">+150%</text>
<line x1="90" y1="515.81" x2="1160" y2="515.81" stroke="#e3ded6" stroke-width="1"/>
<text x="78" y="519.81" text-anchor="end" font-family="Arial, sans-serif" font-size="12" fill="#56606b">+160%</text>
<line x1="90" y1="512.41" x2="1160" y2="512.41" stroke="#e3ded6" stroke-width="1"/>
<text x="78" y="516.41" text-anchor="end" font-family="Arial, sans-serif" font-size="12" fill="#56606b">+170%</text>
<line x1="90" y1="509.00" x2="1160" y2="509.00" stroke="#e3ded6" stroke-width="1"/>
<text x="78" y="513.00" text-anchor="end" font-family="Arial, sans-serif" font-size="12" fill="#56606b">+180%</text>
<line x1="90" y1="505.59" x2="1160" y2="505.59" stroke="#e3ded6" stroke-width="1"/>
<text x="78" y="509.59" text-anchor="end" font-family="Arial, sans-serif" font-size="12" fill="#56606b">+190%</text>
<line x1="90" y1="502.18" x2="1160" y2="502.18" stroke="#e3ded6" stroke-width="1"/>
<text x="78" y="506.18" text-anchor="end" font-family="Arial, sans-serif" font-size="12" fill="#56606b">+200%</text>
<line x1="90" y1="498.78" x2="1160" y2="498.78" stroke="#e3ded6" stroke-width="1"/>
<text x="78" y="502.78" text-anchor="end" font-family="Arial, sans-serif" font-size="12" fill="#56606b">+210%</text>
<line x1="90" y1="495.37" x2="1160" y2="495.37" stroke="#e3ded6" stroke-width="1"/>
<text x="78" y="499.37" text-anchor="end" font-family="Arial, sans-serif" font-size="12" fill="#56606b">+220%</text>
<line x1="90" y1="491.96" x2="1160" y2="491.96" stroke="#e3ded6" stroke-width="1"/>
<text x="78" y="495.96" text-anchor="end" font-family="Arial, sans-serif" font-size="12" fill="#56606b">+230%</text>
<line x1="90" y1="488.55" x2="1160" y2="488.55" stroke="#e3ded6" stroke-width="1"/>
<text x="78" y="492.55" text-anchor="end" font-family="Arial, sans-serif" font-size="12" fill="#56606b">+240%</text>
<line x1="90" y1="485.15" x2="1160" y2="485.15" stroke="#e3ded6" stroke-width="1"/>
<text x="78" y="489.15" text-anchor="end" font-family="Arial, sans-serif" font-size="12" fill="#56606b">+250%</text>
<line x1="90" y1="481.74" x2="1160" y2="481.74" stroke="#e3ded6" stroke-width="1"/>
<text x="78" y="485.74" text-anchor="end" font-family="Arial, sans-serif" font-size="12" fill="#56606b">+260%</text>
<line x1="90" y1="478.33" x2="1160" y2="478.33" stroke="#e3ded6" stroke-width="1"/>
<text x="78" y="482.33" text-anchor="end" font-family="Arial, sans-serif" font-size="12" fill="#56606b">+270%</text>
<line x1="90" y1="474.93" x2="1160" y2="474.93" stroke="#e3ded6" stroke-width="1"/>
<text x="78" y="478.93" text-anchor="end" font-family="Arial, sans-serif" font-size="12" fill="#56606b">+280%</text>
<line x1="90" y1="471.52" x2="1160" y2="471.52" stroke="#e3ded6" stroke-width="1"/>
<text x="78" y="475.52" text-anchor="end" font-family="Arial, sans-serif" font-size="12" fill="#56606b">+290%</text>
<line x1="90" y1="468.11" x2="1160" y2="468.11" stroke="#e3ded6" stroke-width="1"/>
<text x="78" y="472.11" text-anchor="end" font-family="Arial, sans-serif" font-size="12" fill="#56606b">+300%</text>
<line x1="90" y1="464.70" x2="1160" y2="464.70" stroke="#e3ded6" stroke-width="1"/>
<text x="78" y="468.70" text-anchor="end" font-family="Arial, sans-serif" font-size="12" fill="#56606b">+310%</text>
<line x1="90" y1="461.30" x2="1160" y2="461.30" stroke="#e3ded6" stroke-width="1"/>
<text x="78" y="465.30" text-anchor="end" font-family="Arial, sans-serif" font-size="12" fill="#56606b">+320%</text>
<line x1="90" y1="457.89" x2="1160" y2="457.89" stroke="#e3ded6" stroke-width="1"/>
<text x="78" y="461.89" text-anchor="end" font-family="Arial, sans-serif" font-size="12" fill="#56606b">+330%</text>
<line x1="90" y1="454.48" x2="1160" y2="454.48" stroke="#e3ded6" stroke-width="1"/>
<text x="78" y="458.48" text-anchor="end" font-family="Arial, sans-serif" font-size="12" fill="#56606b">+340%</text>
<line x1="90" y1="451.07" x2="1160" y2="451.07" stroke="#e3ded6" stroke-width="1"/>
<text x="78" y="455.07" text-anchor="end" font-family="Arial, sans-serif" font-size="12" fill="#56606b">+350%</text>
<line x1="90" y1="447.67" x2="1160" y2="447.67" stroke="#e3ded6" stroke-width="1"/>
<text x="78" y="451.67" text-anchor="end" font-family="Arial, sans-serif" font-size="12" fill="#56606b">+360%</text>
<line x1="90" y1="444.26" x2="1160" y2="444.26" stroke="#e3ded6" stroke-width="1"/>
<text x="78" y="448.26" text-anchor="end" font-family="Arial, sans-serif" font-size="12" fill="#56606b">+370%</text>
<line x1="90" y1="440.85" x2="1160" y2="440.85" stroke="#e3ded6" stroke-width="1"/>
<text x="78" y="444.85" text-anchor="end" font-family="Arial, sans-serif" font-size="12" fill="#56606b">+380%</text>
<line x1="90" y1="437.44" x2="1160" y2="437.44" stroke="#e3ded6" stroke-width="1"/>
<text x="78" y="441.44" text-anchor="end" font-family="Arial, sans-serif" font-size="12" fill="#56606b">+390%</text>
<line x1="90" y1="434.04" x2="1160" y2="434.04" stroke="#e3ded6" stroke-width="1"/>
<text x="78" y="438.04" text-anchor="end" font-family="Arial, sans-serif" font-size="12" fill="#56606b">+400%</text>
<line x1="90" y1="430.63" x2="1160" y2="430.63" stroke="#e3ded6" stroke-width="1"/>
<text x="78" y="434.63" text-anchor="end" font-family="Arial, sans-serif" font-size="12" fill="#56606b">+410%</text>
<line x1="90" y1="427.22" x2="1160" y2="427.22" stroke="#e3ded6" stroke-width="1"/>
<text x="78" y="431.22" text-anchor="end" font-family="Arial, sans-serif" font-size="12" fill="#56606b">+420%</text>
<line x1="90" y1="423.81" x2="1160" y2="423.81" stroke="#e3ded6" stroke-width="1"/>
<text x="78" y="427.81" text-anchor="end" font-family="Arial, sans-serif" font-size="12" fill="#56606b">+430%</text>
<line x1="90" y1="420.41" x2="1160" y2="420.41" stroke="#e3ded6" stroke-width="1"/>
<text x="78" y="424.41" text-anchor="end" font-family="Arial, sans-serif" font-size="12" fill="#56606b">+440%</text>
<line x1="90" y1="417.00" x2="1160" y2="417.00" stroke="#e3ded6" stroke-width="1"/>
<text x="78" y="421.00" text-anchor="end" font-family="Arial, sans-serif" font-size="12" fill="#56606b">+450%</text>
<line x1="90" y1="413.59" x2="1160" y2="413.59" stroke="#e3ded6" stroke-width="1"/>
<text x="78" y="417.59" text-anchor="end" font-family="Arial, sans-serif" font-size="12" fill="#56606b">+460%</text>
<line x1="90" y1="410.18" x2="1160" y2="410.18" stroke="#e3ded6" stroke-width="1"/>
<text x="78" y="414.18" text-anchor="end" font-family="Arial, sans-serif" font-size="12" fill="#56606b">+470%</text>
<line x1="90" y1="406.78" x2="1160" y2="406.78" stroke="#e3ded6" stroke-width="1"/>
<text x="78" y="410.78" text-anchor="end" font-family="Arial, sans-serif" font-size="12" fill="#56606b">+480%</text>
<line x1="90" y1="403.37" x2="1160" y2="403.37" stroke="#e3ded6" stroke-width="1"/>
<text x="78" y="407.37" text-anchor="end" font-family="Arial, sans-serif" font-size="12" fill="#56606b">+490%</text>
<line x1="90" y1="399.96" x2="1160" y2="399.96" stroke="#e3ded6" stroke-width="1"/>
<text x="78" y="403.96" text-anchor="end" font-family="Arial, sans-serif" font-size="12" fill="#56606b">+500%</text>
<line x1="90" y1="396.55" x2="1160" y2="396.55" stroke="#e3ded6" stroke-width="1"/>
<text x="78" y="400.55" text-anchor="end" font-family="Arial, sans-serif" font-size="12" fill="#56606b">+510%</text>
<line x1="90" y1="393.15" x2="1160" y2="393.15" stroke="#e3ded6" stroke-width="1"/>
<text x="78" y="397.15" text-anchor="end" font-family="Arial, sans-serif" font-size="12" fill="#56606b">+520%</text>
<line x1="90" y1="389.74" x2="1160" y2="389.74" stroke="#e3ded6" stroke-width="1"/>
<text x="78" y="393.74" text-anchor="end" font-family="Arial, sans-serif" font-size="12" fill="#56606b">+530%</text>
<line x1="90" y1="386.33" x2="1160" y2="386.33" stroke="#e3ded6" stroke-width="1"/>
<text x="78" y="390.33" text-anchor="end" font-family="Arial, sans-serif" font-size="12" fill="#56606b">+540%</text>
<line x1="90" y1="382.92" x2="1160" y2="382.92" stroke="#e3ded6" stroke-width="1"/>
<text x="78" y="386.92" text-anchor="end" font-family="Arial, sans-serif" font-size="12" fill="#56606b">+550%</text>
<line x1="90" y1="379.52" x2="1160" y2="379.52" stroke="#e3ded6" stroke-width="1"/>
<text x="78" y="383.52" text-anchor="end" font-family="Arial, sans-serif" font-size="12" fill="#56606b">+560%</text>
<line x1="90" y1="376.11" x2="1160" y2="376.11" stroke="#e3ded6" stroke-width="1"/>
<text x="78" y="380.11" text-anchor="end" font-family="Arial, sans-serif" font-size="12" fill="#56606b">+570%</text>
<line x1="90" y1="372.70" x2="1160" y2="372.70" stroke="#e3ded6" stroke-width="1"/>
<text x="78" y="376.70" text-anchor="end" font-family="Arial, sans-serif" font-size="12" fill="#56606b">+580%</text>
<line x1="90" y1="369.29" x2="1160" y2="369.29" stroke="#e3ded6" stroke-width="1"/>
<text x="78" y="373.29" text-anchor="end" font-family="Arial, sans-serif" font-size="12" fill="#56606b">+590%</text>
<line x1="90" y1="365.89" x2="1160" y2="365.89" stroke="#e3ded6" stroke-width="1"/>
<text x="78" y="369.89" text-anchor="end" font-family="Arial, sans-serif" font-size="12" fill="#56606b">+600%</text>
<line x1="90" y1="362.48" x2="1160" y2="362.48" stroke="#e3ded6" stroke-width="1"/>
<text x="78" y="366.48" text-anchor="end" font-family="Arial, sans-serif" font-size="12" fill="#56606b">+610%</text>
<line x1="90" y1="359.07" x2="1160" y2="359.07" stroke="#e3ded6" stroke-width="1"/>
<text x="78" y="363.07" text-anchor="end" font-family="Arial, sans-serif" font-size="12" fill="#56606b">+620%</text>
<line x1="90" y1="355.66" x2="1160" y2="355.66" stroke="#e3ded6" stroke-width="1"/>
<text x="78" y="359.66" text-anchor="end" font-family="Arial, sans-serif" font-size="12" fill="#56606b">+630%</text>
<line x1="90" y1="352.26" x2="1160" y2="352.26" stroke="#e3ded6" stroke-width="1"/>
<text x="78" y="356.26" text-anchor="end" font-family="Arial, sans-serif" font-size="12" fill="#56606b">+640%</text>
<line x1="90" y1="348.85" x2="1160" y2="348.85" stroke="#e3ded6" stroke-width="1"/>
<text x="78" y="352.85" text-anchor="end" font-family="Arial, sans-serif" font-size="12" fill="#56606b">+650%</text>
<line x1="90" y1="345.44" x2="1160" y2="345.44" stroke="#e3ded6" stroke-width="1"/>
<text x="78" y="349.44" text-anchor="end" font-family="Arial, sans-serif" font-size="12" fill="#56606b">+660%</text>
<line x1="90" y1="342.04" x2="1160" y2="342.04" stroke="#e3ded6" stroke-width="1"/>
<text x="78" y="346.04" text-anchor="end" font-family="Arial, sans-serif" font-size="12" fill="#56606b">+670%</text>
<line x1="90" y1="338.63" x2="1160" y2="338.63" stroke="#e3ded6" stroke-width="1"/>
<text x="78" y="342.63" text-anchor="end" font-family="Arial, sans-serif" font-size="12" fill="#56606b">+680%</text>
<line x1="90" y1="335.22" x2="1160" y2="335.22" stroke="#e3ded6" stroke-width="1"/>
<text x="78" y="339.22" text-anchor="end" font-family="Arial, sans-serif" font-size="12" fill="#56606b">+690%</text>
<line x1="90" y1="331.81" x2="1160" y2="331.81" stroke="#e3ded6" stroke-width="1"/>
<text x="78" y="335.81" text-anchor="end" font-family="Arial, sans-serif" font-size="12" fill="#56606b">+700%</text>
<line x1="90" y1="328.41" x2="1160" y2="328.41" stroke="#e3ded6" stroke-width="1"/>
<text x="78" y="332.41" text-anchor="end" font-family="Arial, sans-serif" font-size="12" fill="#56606b">+710%</text>
<line x1="90" y1="325.00" x2="1160" y2="325.00" stroke="#e3ded6" stroke-width="1"/>
<text x="78" y="329.00" text-anchor="end" font-family="Arial, sans-serif" font-size="12" fill="#56606b">+720%</text>
<line x1="90" y1="321.59" x2="1160" y2="321.59" stroke="#e3ded6" stroke-width="1"/>
<text x="78" y="325.59" text-anchor="end" font-family="Arial, sans-serif" font-size="12" fill="#56606b">+730%</text>
<line x1="90" y1="318.18" x2="1160" y2="318.18" stroke="#e3ded6" stroke-width="1"/>
<text x="78" y="322.18" text-anchor="end" font-family="Arial, sans-serif" font-size="12" fill="#56606b">+740%</text>
<line x1="90" y1="314.78" x2="1160" y2="314.78" stroke="#e3ded6" stroke-width="1"/>
<text x="78" y="318.78" text-anchor="end" font-family="Arial, sans-serif" font-size="12" fill="#56606b">+750%</text>
<line x1="90" y1="311.37" x2="1160" y2="311.37" stroke="#e3ded6" stroke-width="1"/>
<text x="78" y="315.37" text-anchor="end" font-family="Arial, sans-serif" font-size="12" fill="#56606b">+760%</text>
<line x1="90" y1="307.96" x2="1160" y2="307.96" stroke="#e3ded6" stroke-width="1"/>
<text x="78" y="311.96" text-anchor="end" font-family="Arial, sans-serif" font-size="12" fill="#56606b">+770%</text>
<line x1="90" y1="304.55" x2="1160" y2="304.55" stroke="#e3ded6" stroke-width="1"/>
<text x="78" y="308.55" text-anchor="end" font-family="Arial, sans-serif" font-size="12" fill="#56606b">+780%</text>
<line x1="90" y1="301.15" x2="1160" y2="301.15" stroke="#e3ded6" stroke-width="1"/>
<text x="78" y="305.15" text-anchor="end" font-family="Arial, sans-serif" font-size="12" fill="#56606b">+790%</text>
<line x1="90" y1="297.74" x2="1160" y2="297.74" stroke="#e3ded6" stroke-width="1"/>
<text x="78" y="301.74" text-anchor="end" font-family="Arial, sans-serif" font-size="12" fill="#56606b">+800%</text>
<line x1="90" y1="294.33" x2="1160" y2="294.33" stroke="#e3ded6" stroke-width="1"/>
<text x="78" y="298.33" text-anchor="end" font-family="Arial, sans-serif" font-size="12" fill="#56606b">+810%</text>
<line x1="90" y1="290.92" x2="1160" y2="290.92" stroke="#e3ded6" stroke-width="1"/>
<text x="78" y="294.92" text-anchor="end" font-family="Arial, sans-serif" font-size="12" fill="#56606b">+820%</text>
<line x1="90" y1="287.52" x2="1160" y2="287.52" stroke="#e3ded6" stroke-width="1"/>
<text x="78" y="291.52" text-anchor="end" font-family="Arial, sans-serif" font-size="12" fill="#56606b">+830%</text>
<line x1="90" y1="284.11" x2="1160" y2="284.11" stroke="#e3ded6" stroke-width="1"/>
<text x="78" y="288.11" text-anchor="end" font-family="Arial, sans-serif" font-size="12" fill="#56606b">+840%</text>
<line x1="90" y1="280.70" x2="1160" y2="280.70" stroke="#e3ded6" stroke-width="1"/>
<text x="78" y="284.70" text-anchor="end" font-family="Arial, sans-serif" font-size="12" fill="#56606b">+850%</text>
<line x1="90" y1="277.29" x2="1160" y2="277.29" stroke="#e3ded6" stroke-width="1"/>
<text x="78" y="281.29" text-anchor="end" font-family="Arial, sans-serif" font-size="12" fill="#56606b">+860%</text>
<line x1="90" y1="273.89" x2="1160" y2="273.89" stroke="#e3ded6" stroke-width="1"/>
<text x="78" y="277.89" text-anchor="end" font-family="Arial, sans-serif" font-size="12" fill="#56606b">+870%</text>
<line x1="90" y1="270.48" x2="1160" y2="270.48" stroke="#e3ded6" stroke-width="1"/>
<text x="78" y="274.48" text-anchor="end" font-family="Arial, sans-serif" font-size="12" fill="#56606b">+880%</text>
<line x1="90" y1="267.07" x2="1160" y2="267.07" stroke="#e3ded6" stroke-width="1"/>
<text x="78" y="271.07" text-anchor="end" font-family="Arial, sans-serif" font-size="12" fill="#56606b">+890%</text>
<line x1="90" y1="263.66" x2="1160" y2="263.66" stroke="#e3ded6" stroke-width="1"/>
<text x="78" y="267.66" text-anchor="end" font-family="Arial, sans-serif" font-size="12" fill="#56606b">+900%</text>
<line x1="90" y1="260.26" x2="1160" y2="260.26" stroke="#e3ded6" stroke-width="1"/>
<text x="78" y="264.26" text-anchor="end" font-family="Arial, sans-serif" font-size="12" fill="#56606b">+910%</text>
<line x1="90" y1="256.85" x2="1160" y2="256.85" stroke="#e3ded6" stroke-width="1"/>
<text x="78" y="260.85" text-anchor="end" font-family="Arial, sans-serif" font-size="12" fill="#56606b">+920%</text>
<line x1="90" y1="253.44" x2="1160" y2="253.44" stroke="#e3ded6" stroke-width="1"/>
<text x="78" y="257.44" text-anchor="end" font-family="Arial, sans-serif" font-size="12" fill="#56606b">+930%</text>
<line x1="90" y1="250.03" x2="1160" y2="250.03" stroke="#e3ded6" stroke-width="1"/>
<text x="78" y="254.03" text-anchor="end" font-family="Arial, sans-serif" font-size="12" fill="#56606b">+940%</text>
<line x1="90" y1="246.63" x2="1160" y2="246.63" stroke="#e3ded6" stroke-width="1"/>
<text x="78" y="250.63" text-anchor="end" font-family="Arial, sans-serif" font-size="12" fill="#56606b">+950%</text>
<line x1="90" y1="243.22" x2="1160" y2="243.22" stroke="#e3ded6" stroke-width="1"/>
<text x="78" y="247.22" text-anchor="end" font-family="Arial, sans-serif" font-size="12" fill="#56606b">+960%</text>
<line x1="90" y1="239.81" x2="1160" y2="239.81" stroke="#e3ded6" stroke-width="1"/>
<text x="78" y="243.81" text-anchor="end" font-family="Arial, sans-serif" font-size="12" fill="#56606b">+970%</text>
<line x1="90" y1="236.40" x2="1160" y2="236.40" stroke="#e3ded6" stroke-width="1"/>
<text x="78" y="240.40" text-anchor="end" font-family="Arial, sans-serif" font-size="12" fill="#56606b">+980%</text>
<line x1="90" y1="233.00" x2="1160" y2="233.00" stroke="#e3ded6" stroke-width="1"/>
<text x="78" y="237.00" text-anchor="end" font-family="Arial, sans-serif" font-size="12" fill="#56606b">+990%</text>
<line x1="90" y1="229.59" x2="1160" y2="229.59" stroke="#e3ded6" stroke-width="1"/>
<text x="78" y="233.59" text-anchor="end" font-family="Arial, sans-serif" font-size="12" fill="#56606b">+1000%</text>
<line x1="90" y1="226.18" x2="1160" y2="226.18" stroke="#e3ded6" stroke-width="1"/>
<text x="78" y="230.18" text-anchor="end" font-family="Arial, sans-serif" font-size="12" fill="#56606b">+1010%</text>
<line x1="90" y1="222.77" x2="1160" y2="222.77" stroke="#e3ded6" stroke-width="1"/>
<text x="78" y="226.77" text-anchor="end" font-family="Arial, sans-serif" font-size="12" fill="#56606b">+1020%</text>
<line x1="90" y1="219.37" x2="1160" y2="219.37" stroke="#e3ded6" stroke-width="1"/>
<text x="78" y="223.37" text-anchor="end" font-family="Arial, sans-serif" font-size="12" fill="#56606b">+1030%</text>
<line x1="90" y1="215.96" x2="1160" y2="215.96" stroke="#e3ded6" stroke-width="1"/>
<text x="78" y="219.96" text-anchor="end" font-family="Arial, sans-serif" font-size="12" fill="#56606b">+1040%</text>
<line x1="90" y1="212.55" x2="1160" y2="212.55" stroke="#e3ded6" stroke-width="1"/>
<text x="78" y="216.55" text-anchor="end" font-family="Arial, sans-serif" font-size="12" fill="#56606b">+1050%</text>
<line x1="90" y1="209.14" x2="1160" y2="209.14" stroke="#e3ded6" stroke-width="1"/>
<text x="78" y="213.14" text-anchor="end" font-family="Arial, sans-serif" font-size="12" fill="#56606b">+1060%</text>
<line x1="90" y1="205.74" x2="1160" y2="205.74" stroke="#e3ded6" stroke-width="1"/>
<text x="78" y="209.74" text-anchor="end" font-family="Arial, sans-serif" font-size="12" fill="#56606b">+1070%</text>
<line x1="90" y1="202.33" x2="1160" y2="202.33" stroke="#e3ded6" stroke-width="1"/>
<text x="78" y="206.33" text-anchor="end" font-family="Arial, sans-serif" font-size="12" fill="#56606b">+1080%</text>
<line x1="90" y1="198.92" x2="1160" y2="198.92" stroke="#e3ded6" stroke-width="1"/>
<text x="78" y="202.92" text-anchor="end" font-family="Arial, sans-serif" font-size="12" fill="#56606b">+1090%</text>
<line x1="90" y1="195.52" x2="1160" y2="195.52" stroke="#e3ded6" stroke-width="1"/>
<text x="78" y="199.52" text-anchor="end" font-family="Arial, sans-serif" font-size="12" fill="#56606b">+1100%</text>
<line x1="90" y1="192.11" x2="1160" y2="192.11" stroke="#e3ded6" stroke-width="1"/>
<text x="78" y="196.11" text-anchor="end" font-family="Arial, sans-serif" font-size="12" fill="#56606b">+1110%</text>
<line x1="90" y1="188.70" x2="1160" y2="188.70" stroke="#e3ded6" stroke-width="1"/>
<text x="78" y="192.70" text-anchor="end" font-family="Arial, sans-serif" font-size="12" fill="#56606b">+1120%</text>
<line x1="90" y1="185.29" x2="1160" y2="185.29" stroke="#e3ded6" stroke-width="1"/>
<text x="78" y="189.29" text-anchor="end" font-family="Arial, sans-serif" font-size="12" fill="#56606b">+1130%</text>
<line x1="90" y1="181.89" x2="1160" y2="181.89" stroke="#e3ded6" stroke-width="1"/>
<text x="78" y="185.89" text-anchor="end" font-family="Arial, sans-serif" font-size="12" fill="#56606b">+1140%</text>
<line x1="90" y1="178.48" x2="1160" y2="178.48" stroke="#e3ded6" stroke-width="1"/>
<text x="78" y="182.48" text-anchor="end" font-family="Arial, sans-serif" font-size="12" fill="#56606b">+1150%</text>
<line x1="90" y1="175.07" x2="1160" y2="175.07" stroke="#e3ded6" stroke-width="1"/>
<text x="78" y="179.07" text-anchor="end" font-family="Arial, sans-serif" font-size="12" fill="#56606b">+1160%</text>
<line x1="90" y1="171.66" x2="1160" y2="171.66" stroke="#e3ded6" stroke-width="1"/>
<text x="78" y="175.66" text-anchor="end" font-family="Arial, sans-serif" font-size="12" fill="#56606b">+1170%</text>
<line x1="90" y1="168.26" x2="1160" y2="168.26" stroke="#e3ded6" stroke-width="1"/>
<text x="78" y="172.26" text-anchor="end" font-family="Arial, sans-serif" font-size="12" fill="#56606b">+1180%</text>
<line x1="90" y1="164.85" x2="1160" y2="164.85" stroke="#e3ded6" stroke-width="1"/>
<text x="78" y="168.85" text-anchor="end" font-family="Arial, sans-serif" font-size="12" fill="#56606b">+1190%</text>
<line x1="90" y1="161.44" x2="1160" y2="161.44" stroke="#e3ded6" stroke-width="1"/>
<text x="78" y="165.44" text-anchor="end" font-family="Arial, sans-serif" font-size="12" fill="#56606b">+1200%</text>
<line x1="90" y1="158.03" x2="1160" y2="158.03" stroke="#e3ded6" stroke-width="1"/>
<text x="78" y="162.03" text-anchor="end" font-family="Arial, sans-serif" font-size="12" fill="#56606b">+1210%</text>
<line x1="90" y1="154.63" x2="1160" y2="154.63" stroke="#e3ded6" stroke-width="1"/>
<text x="78" y="158.63" text-anchor="end" font-family="Arial, sans-serif" font-size="12" fill="#56606b">+1220%</text>
<line x1="90" y1="151.22" x2="1160" y2="151.22" stroke="#e3ded6" stroke-width="1"/>
<text x="78" y="155.22" text-anchor="end" font-family="Arial, sans-serif" font-size="12" fill="#56606b">+1230%</text>
<line x1="90" y1="147.81" x2="1160" y2="147.81" stroke="#e3ded6" stroke-width="1"/>
<text x="78" y="151.81" text-anchor="end" font-family="Arial, sans-serif" font-size="12" fill="#56606b">+1240%</text>
<line x1="90" y1="144.40" x2="1160" y2="144.40" stroke="#e3ded6" stroke-width="1"/>
<text x="78" y="148.40" text-anchor="end" font-family="Arial, sans-serif" font-size="12" fill="#56606b">+1250%</text>
<line x1="90" y1="141.00" x2="1160" y2="141.00" stroke="#e3ded6" stroke-width="1"/>
<text x="78" y="145.00" text-anchor="end" font-family="Arial, sans-serif" font-size="12" fill="#56606b">+1260%</text>
<line x1="90" y1="137.59" x2="1160" y2="137.59" stroke="#e3ded6" stroke-width="1"/>
<text x="78" y="141.59" text-anchor="end" font-family="Arial, sans-serif" font-size="12" fill="#56606b">+1270%</text>
<line x1="90" y1="134.18" x2="1160" y2="134.18" stroke="#e3ded6" stroke-width="1"/>
<text x="78" y="138.18" text-anchor="end" font-family="Arial, sans-serif" font-size="12" fill="#56606b">+1280%</text>
<line x1="90" y1="130.77" x2="1160" y2="130.77" stroke="#e3ded6" stroke-width="1"/>
<text x="78" y="134.77" text-anchor="end" font-family="Arial, sans-serif" font-size="12" fill="#56606b">+1290%</text>
<line x1="90" y1="127.37" x2="1160" y2="127.37" stroke="#e3ded6" stroke-width="1"/>
<text x="78" y="131.37" text-anchor="end" font-family="Arial, sans-serif" font-size="12" fill="#56606b">+1300%</text>
<line x1="90" y1="123.96" x2="1160" y2="123.96" stroke="#e3ded6" stroke-width="1"/>
<text x="78" y="127.96" text-anchor="end" font-family="Arial, sans-serif" font-size="12" fill="#56606b">+1310%</text>
<line x1="90" y1="120.55" x2="1160" y2="120.55" stroke="#e3ded6" stroke-width="1"/>
<text x="78" y="124.55" text-anchor="end" font-family="Arial, sans-serif" font-size="12" fill="#56606b">+1320%</text>
<line x1="90" y1="117.14" x2="1160" y2="117.14" stroke="#e3ded6" stroke-width="1"/>
<text x="78" y="121.14" text-anchor="end" font-family="Arial, sans-serif" font-size="12" fill="#56606b">+1330%</text>
<line x1="90" y1="113.74" x2="1160" y2="113.74" stroke="#e3ded6" stroke-width="1"/>
<text x="78" y="117.74" text-anchor="end" font-family="Arial, sans-serif" font-size="12" fill="#56606b">+1340%</text>
<line x1="90" y1="110.33" x2="1160" y2="110.33" stroke="#e3ded6" stroke-width="1"/>
<text x="78" y="114.33" text-anchor="end" font-family="Arial, sans-serif" font-size="12" fill="#56606b">+1350%</text>
<line x1="90" y1="106.92" x2="1160" y2="106.92" stroke="#e3ded6" stroke-width="1"/>
<text x="78" y="110.92" text-anchor="end" font-family="Arial, sans-serif" font-size="12" fill="#56606b">+1360%</text>
<line x1="90" y1="103.51" x2="1160" y2="103.51" stroke="#e3ded6" stroke-width="1"/>
<text x="78" y="107.51" text-anchor="end" font-family="Arial, sans-serif" font-size="12" fill="#56606b">+1370%</text>
<line x1="90" y1="100.11" x2="1160" y2="100.11" stroke="#e3ded6" stroke-width="1"/>
<text x="78" y="104.11" text-anchor="end" font-family="Arial, sans-serif" font-size="12" fill="#56606b">+1380%</text>
<line x1="90" y1="96.70" x2="1160" y2="96.70" stroke="#e3ded6" stroke-width="1"/>
<text x="78" y="100.70" text-anchor="end" font-family="Arial, sans-serif" font-size="12" fill="#56606b">+1390%</text>
<line x1="90" y1="93.29" x2="1160" y2="93.29" stroke="#e3ded6" stroke-width="1"/>
<text x="78" y="97.29" text-anchor="end" font-family="Arial, sans-serif" font-size="12" fill="#56606b">+1400%</text>
<line x1="90" y1="89.88" x2="1160" y2="89.88" stroke="#e3ded6" stroke-width="1"/>
<text x="78" y="93.88" text-anchor="end" font-family="Arial, sans-serif" font-size="12" fill="#56606b">+1410%</text>
<line x1="90" y1="86.48" x2="1160" y2="86.48" stroke="#e3ded6" stroke-width="1"/>
<text x="78" y="90.48" text-anchor="end" font-family="Arial, sans-serif" font-size="12" fill="#56606b">+1420%</text>
<line x1="90" y1="83.07" x2="1160" y2="83.07" stroke="#e3ded6" stroke-width="1"/>
<text x="78" y="87.07" text-anchor="end" font-family="Arial, sans-serif" font-size="12" fill="#56606b">+1430%</text>
<line x1="90" y1="79.66" x2="1160" y2="79.66" stroke="#e3ded6" stroke-width="1"/>
<text x="78" y="83.66" text-anchor="end" font-family="Arial, sans-serif" font-size="12" fill="#56606b">+1440%</text>
<line x1="90" y1="76.25" x2="1160" y2="76.25" stroke="#e3ded6" stroke-width="1"/>
<text x="78" y="80.25" text-anchor="end" font-family="Arial, sans-serif" font-size="12" fill="#56606b">+1450%</text>
<line x1="90" y1="72.85" x2="1160" y2="72.85" stroke="#e3ded6" stroke-width="1"/>
<text x="78" y="76.85" text-anchor="end" font-family="Arial, sans-serif" font-size="12" fill="#56606b">+1460%</text>
<line x1="90" y1="69.44" x2="1160" y2="69.44" stroke="#e3ded6" stroke-width="1"/>
<text x="78" y="73.44" text-anchor="end" font-family="Arial, sans-serif" font-size="12" fill="#56606b">+1470%</text>
<line x1="258.95" y1="70" x2="258.95" y2="630" stroke="#eee9e1" stroke-width="1"/>
<text x="258.95" y="658" text-anchor="middle" font-family="Arial, sans-serif" font-size="12" fill="#56606b">1y</text>
<line x1="484.21" y1="70" x2="484.21" y2="630" stroke="#eee9e1" stroke-width="1"/>
<text x="484.21" y="658" text-anchor="middle" font-family="Arial, sans-serif" font-size="12" fill="#56606b">2y</text>
<line x1="709.47" y1="70" x2="709.47" y2="630" stroke="#eee9e1" stroke-width="1"/>
<text x="709.47" y="658" text-anchor="middle" font-family="Arial, sans-serif" font-size="12" fill="#56606b">3y</text>
<line x1="934.74" y1="70" x2="934.74" y2="630" stroke="#eee9e1" stroke-width="1"/>
<text x="934.74" y="658" text-anchor="middle" font-family="Arial, sans-serif" font-size="12" fill="#56606b">4y</text>
<line x1="1160.00" y1="70" x2="1160.00" y2="630" stroke="#eee9e1" stroke-width="1"/>
<text x="1160.00" y="658" text-anchor="middle" font-family="Arial, sans-serif" font-size="12" fill="#56606b">5y</text>
<rect x="90" y="70" width="1070" height="560" fill="none" stroke="#d5cec3" stroke-width="1"/>
<polyline points="90.00,498.88 146.32,561.90 202.63,566.72 258.95,569.23 315.26,570.33 371.58,571.00 427.89,571.61 484.21,571.94 540.53,572.25 596.84,572.46 653.16,572.46 709.47,572.61 765.79,572.77 822.11,572.82 878.42,572.88 934.74,573.01 991.05,573.04 1047.37,573.10 1103.68,573.12 1160.00,573.13" fill="none" stroke="#1b7f5c" stroke-width="3" stroke-linejoin="round" stroke-linecap="round"/>
<circle cx="90.00" cy="498.88" r="3" fill="#1b7f5c"/>
<circle cx="146.32" cy="561.90" r="3" fill="#1b7f5c"/>
<circle cx="202.63" cy="566.72" r="3" fill="#1b7f5c"/>
<circle cx="258.95" cy="569.23" r="3" fill="#1b7f5c"/>
<circle cx="315.26" cy="570.33" r="3" fill="#1b7f5c"/>
<circle cx="371.58" cy="571.00" r="3" fill="#1b7f5c"/>
<circle cx="427.89" cy="571.61" r="3" fill="#1b7f5c"/>
<circle cx="484.21" cy="571.94" r="3" fill="#1b7f5c"/>
<circle cx="540.53" cy="572.25" r="3" fill="#1b7f5c"/>
<circle cx="596.84" cy="572.46" r="3" fill="#1b7f5c"/>
<circle cx="653.16" cy="572.46" r="3" fill="#1b7f5c"/>
<circle cx="709.47" cy="572.61" r="3" fill="#1b7f5c"/>
<circle cx="765.79" cy="572.77" r="3" fill="#1b7f5c"/>
<circle cx="822.11" cy="572.82" r="3" fill="#1b7f5c"/>
<circle cx="878.42" cy="572.88" r="3" fill="#1b7f5c"/>
<circle cx="934.74" cy="573.01" r="3" fill="#1b7f5c"/>
<circle cx="991.05" cy="573.04" r="3" fill="#1b7f5c"/>
<circle cx="1047.37" cy="573.10" r="3" fill="#1b7f5c"/>
<circle cx="1103.68" cy="573.12" r="3" fill="#1b7f5c"/>
<circle cx="1160.00" cy="573.13" r="3" fill="#1b7f5c"/>
<polyline points="90.00,566.58 146.32,572.76 202.63,574.65 258.95,575.04 315.26,575.51 371.58,575.64 427.89,575.71 484.21,575.67 540.53,575.81 596.84,575.75 653.16,575.65 709.47,575.72 765.79,575.61 822.11,575.58 878.42,575.63 934.74,575.45 991.05,575.49 1047.37,575.47 1103.68,575.35 1160.00,575.26" fill="none" stroke="#b23a48" stroke-width="3" stroke-linejoin="round" stroke-linecap="round"/>
<circle cx="90.00" cy="566.58" r="3" fill="#b23a48"/>
<circle cx="146.32" cy="572.76" r="3" fill="#b23a48"/>
<circle cx="202.63" cy="574.65" r="3" fill="#b23a48"/>
<circle cx="258.95" cy="575.04" r="3" fill="#b23a48"/>
<circle cx="315.26" cy="575.51" r="3" fill="#b23a48"/>
<circle cx="371.58" cy="575.64" r="3" fill="#b23a48"/>
<circle cx="427.89" cy="575.71" r="3" fill="#b23a48"/>
<circle cx="484.21" cy="575.67" r="3" fill="#b23a48"/>
<circle cx="540.53" cy="575.81" r="3" fill="#b23a48"/>
<circle cx="596.84" cy="575.75" r="3" fill="#b23a48"/>
<circle cx="653.16" cy="575.65" r="3" fill="#b23a48"/>
<circle cx="709.47" cy="575.72" r="3" fill="#b23a48"/>
<circle cx="765.79" cy="575.61" r="3" fill="#b23a48"/>
<circle cx="822.11" cy="575.58" r="3" fill="#b23a48"/>
<circle cx="878.42" cy="575.63" r="3" fill="#b23a48"/>
<circle cx="934.74" cy="575.45" r="3" fill="#b23a48"/>
<circle cx="991.05" cy="575.49" r="3" fill="#b23a48"/>
<circle cx="1047.37" cy="575.47" r="3" fill="#b23a48"/>
<circle cx="1103.68" cy="575.35" r="3" fill="#b23a48"/>
<circle cx="1160.00" cy="575.26" r="3" fill="#b23a48"/>
<polyline points="90.00,124.19 146.32,521.19 202.63,543.55 258.95,552.29 315.26,555.51 371.58,558.67 427.89,560.06 484.21,560.55 540.53,561.88 596.84,561.89 653.16,562.32 709.47,563.15 765.79,563.49 822.11,564.02 878.42,564.79 934.74,565.25 991.05,566.17 1047.37,566.59 1103.68,566.49 1160.00,566.81" fill="none" stroke="#2468b2" stroke-width="3" stroke-linejoin="round" stroke-linecap="round"/>
<circle cx="90.00" cy="124.19" r="3" fill="#2468b2"/>
<circle cx="146.32" cy="521.19" r="3" fill="#2468b2"/>
<circle cx="202.63" cy="543.55" r="3" fill="#2468b2"/>
<circle cx="258.95" cy="552.29" r="3" fill="#2468b2"/>
<circle cx="315.26" cy="555.51" r="3" fill="#2468b2"/>
<circle cx="371.58" cy="558.67" r="3" fill="#2468b2"/>
<circle cx="427.89" cy="560.06" r="3" fill="#2468b2"/>
<circle cx="484.21" cy="560.55" r="3" fill="#2468b2"/>
<circle cx="540.53" cy="561.88" r="3" fill="#2468b2"/>
<circle cx="596.84" cy="561.89" r="3" fill="#2468b2"/>
<circle cx="653.16" cy="562.32" r="3" fill="#2468b2"/>
<circle cx="709.47" cy="563.15" r="3" fill="#2468b2"/>
<circle cx="765.79" cy="563.49" r="3" fill="#2468b2"/>
<circle cx="822.11" cy="564.02" r="3" fill="#2468b2"/>
<circle cx="878.42" cy="564.79" r="3" fill="#2468b2"/>
<circle cx="934.74" cy="565.25" r="3" fill="#2468b2"/>
<circle cx="991.05" cy="566.17" r="3" fill="#2468b2"/>
<circle cx="1047.37" cy="566.59" r="3" fill="#2468b2"/>
<circle cx="1103.68" cy="566.49" r="3" fill="#2468b2"/>
<circle cx="1160.00" cy="566.81" r="3" fill="#2468b2"/>
<polyline points="90.00,562.68 146.32,569.58 202.63,571.48 258.95,572.70 315.26,573.24 371.58,573.04 427.89,573.78 484.21,573.39 540.53,573.21 596.84,573.07 653.16,572.71 709.47,572.32 765.79,572.70 822.11,572.79 878.42,573.84 934.74,573.29 991.05,574.12 1047.37,574.21 1103.68,573.53 1160.00,573.91" fill="none" stroke="#8a5fbf" stroke-width="3" stroke-linejoin="round" stroke-linecap="round"/>
<circle cx="90.00" cy="562.68" r="3" fill="#8a5fbf"/>
<circle cx="146.32" cy="569.58" r="3" fill="#8a5fbf"/>
<circle cx="202.63" cy="571.48" r="3" fill="#8a5fbf"/>
<circle cx="258.95" cy="572.70" r="3" fill="#8a5fbf"/>
<circle cx="315.26" cy="573.24" r="3" fill="#8a5fbf"/>
<circle cx="371.58" cy="573.04" r="3" fill="#8a5fbf"/>
<circle cx="427.89" cy="573.78" r="3" fill="#8a5fbf"/>
<circle cx="484.21" cy="573.39" r="3" fill="#8a5fbf"/>
<circle cx="540.53" cy="573.21" r="3" fill="#8a5fbf"/>
<circle cx="596.84" cy="573.07" r="3" fill="#8a5fbf"/>
<circle cx="653.16" cy="572.71" r="3" fill="#8a5fbf"/>
<circle cx="709.47" cy="572.32" r="3" fill="#8a5fbf"/>
<circle cx="765.79" cy="572.70" r="3" fill="#8a5fbf"/>
<circle cx="822.11" cy="572.79" r="3" fill="#8a5fbf"/>
<circle cx="878.42" cy="573.84" r="3" fill="#8a5fbf"/>
<circle cx="934.74" cy="573.29" r="3" fill="#8a5fbf"/>
<circle cx="991.05" cy="574.12" r="3" fill="#8a5fbf"/>
<circle cx="1047.37" cy="574.21" r="3" fill="#8a5fbf"/>
<circle cx="1103.68" cy="573.53" r="3" fill="#8a5fbf"/>
<circle cx="1160.00" cy="573.91" r="3" fill="#8a5fbf"/>
<line x1="730" y1="24" x2="758" y2="24" stroke="#1b7f5c" stroke-width="4" stroke-linecap="round"/>
<text x="768" y="28" font-family="Arial, sans-serif" font-size="13" fill="#28313b">All long</text>
<line x1="920" y1="24" x2="948" y2="24" stroke="#b23a48" stroke-width="4" stroke-linecap="round"/>
<text x="958" y="28" font-family="Arial, sans-serif" font-size="13" fill="#28313b">All short</text>
<line x1="730" y1="48" x2="758" y2="48" stroke="#2468b2" stroke-width="4" stroke-linecap="round"/>
<text x="768" y="52" font-family="Arial, sans-serif" font-size="13" fill="#28313b">Winner long</text>
<line x1="920" y1="48" x2="948" y2="48" stroke="#8a5fbf" stroke-width="4" stroke-linecap="round"/>
<text x="958" y="52" font-family="Arial, sans-serif" font-size="13" fill="#28313b">Winner short</text>
<text x="625.0" y="694" text-anchor="middle" font-family="Arial, sans-serif" font-size="14" fill="#38414c">Forward holding window</text>
<text x="26" y="350.0" text-anchor="middle" font-family="Arial, sans-serif" font-size="14" fill="#38414c" transform="rotate(-90 26 350.0)">Annual beat</text>
</svg>
