<svg xmlns="http://www.w3.org/2000/svg" width="1200" height="720" viewBox="0 0 1200 720">
<rect width="100%" height="100%" fill="#fbfaf7"/>
<text x="90" y="34" font-family="Arial, sans-serif" font-size="24" font-weight="700" fill="#1f2933">Forward Annual Beat vs S&amp;P 500 TR</text>
<text x="90" y="58" font-family="Arial, sans-serif" font-size="13" fill="#5b6572">Time-weighted annualized outperformance, windows from 1 quarter to 5 years</text>
<line x1="90" y1="570.33" x2="1160" y2="570.33" stroke="#c9c2b8" stroke-width="1.5"/>
<text x="78" y="574.33" text-anchor="end" font-family="Arial, sans-serif" font-size="12" fill="#56606b">+0%</text>
<line x1="90" y1="399.96" x2="1160" y2="399.96" stroke="#e3ded6" stroke-width="1"/>
<text x="78" y="403.96" text-anchor="end" font-family="Arial, sans-serif" font-size="12" fill="#56606b">+500%</text>
<line x1="90" y1="229.59" x2="1160" y2="229.59" stroke="#e3ded6" stroke-width="1"/>
<text x="78" y="233.59" text-anchor="end" font-family="Arial, sans-serif" font-size="12" fill="#56606b">+1000%</text>
<line x1="90" y1="59.22" x2="1160" y2="59.22" stroke="#e3ded6" stroke-width="1"/>
<text x="78" y="63.22" text-anchor="end" font-family="Arial, sans-serif" font-size="12" fill="#56606b">+1500%</text>
<line x1="258.95" y1="70" x2="258.95" y2="630" stroke="#eee9e1" stroke-width="1"/>
<text x="258.95" y="658" text-anchor="middle" font-family="Arial, sans-serif" font-size="12" fill="#56606b">1y</text>
<line x1="484.21" y1="70" x2="484.21" y2="630" stroke="#eee9e1" stroke-width="1"/>
<text x="484.21" y="658" text-anchor="middle" font-family="Arial, sans-serif" font-size="12" fill="#56606b">2y</text>
<line x1="709.47" y1="70" x2="709.47" y2="630" stroke="#eee9e1" stroke-width="1"/>
<text x="709.47" y="658" text-anchor="middle" font-family="Arial, sans-serif" font-size="12" fill="#56606b">3y</text>
<line x1="934.74" y1="70" x2="934.74" y2="630" stroke="#eee9e1" stroke-width="1"/>
<text x="934.74" y="658" text-anchor="middle" font-family="Arial, sans-serif" font-size="12" fill="#56606b">4y</text>
<line x1="1160.00" y1="70" x2="1160.00" y2="630" stroke="#eee9e1" stroke-width="1"/>
<text x="1160.00" y="658" text-anchor="middle" font-family="Arial, sans-serif" font-size="12" fill="#56606b">5y</text>
<rect x="90" y="70" width="1070" height="560" fill="none" stroke="#d5cec3" stroke-width="1"/>
<polyline points="90.00,498.88 146.32,561.90 202.63,566.72 258.95,569.23 315.26,570.33 371.58,571.00 427.89,571.61 484.21,571.94 540.53,572.25 596.84,572.46 653.16,572.46 709.47,572.61 765.79,572.77 822.11,572.82 878.42,572.88 934.74,573.01 991.05,573.04 1047.37,573.10 1103.68,573.12 1160.00,573.13" fill="none" stroke="#1b7f5c" stroke-width="3" stroke-linejoin="round" stroke-linecap="round"/>
<circle cx="90.00" cy="498.88" r="3" fill="#1b7f5c"/>
<circle cx="146.32" cy="561.90" r="3" fill="#1b7f5c"/>
<circle cx="202.63" cy="566.72" r="3" fill="#1b7f5c"/>
<circle cx="258.95" cy="569.23" r="3" fill="#1b7f5c"/>
<circle cx="315.26" cy="570.33" r="3" fill="#1b7f5c"/>
<circle cx="371.58" cy="571.00" r="3" fill="#1b7f5c"/>
<circle cx="427.89" cy="571.61" r="3" fill="#1b7f5c"/>
<circle cx="484.21" cy="571.94" r="3" fill="#1b7f5c"/>
<circle cx="540.53" cy="572.25" r="3" fill="#1b7f5c"/>
<circle cx="596.84" cy="572.46" r="3" fill="#1b7f5c"/>
<circle cx="653.16" cy="572.46" r="3" fill="#1b7f5c"/>
<circle cx="709.47" cy="572.61" r="3" fill="#1b7f5c"/>
<circle cx="765.79" cy="572.77" r="3" fill="#1b7f5c"/>
<circle cx="822.11" cy="572.82" r="3" fill="#1b7f5c"/>
<circle cx="878.42" cy="572.88" r="3" fill="#1b7f5c"/>
<circle cx="934.74" cy="573.01" r="3" fill="#1b7f5c"/>
<circle cx="991.05" cy="573.04" r="3" fill="#1b7f5c"/>
<circle cx="1047.37" cy="573.10" r="3" fill="#1b7f5c"/>
<circle cx="1103.68" cy="573.12" r="3" fill="#1b7f5c"/>
<circle cx="1160.00" cy="573.13" r="3" fill="#1b7f5c"/>
<polyline points="90.00,566.58 146.32,572.76 202.63,574.65 258.95,575.04 315.26,575.51 371.58,575.64 427.89,575.71 484.21,575.67 540.53,575.81 596.84,575.75 653.16,575.65 709.47,575.72 765.79,575.61 822.11,575.58 878.42,575.63 934.74,575.45 991.05,575.49 1047.37,575.47 1103.68,575.35 1160.00,575.26" fill="none" stroke="#b23a48" stroke-width="3" stroke-linejoin="round" stroke-linecap="round"/>
<circle cx="90.00" cy="566.58" r="3" fill="#b23a48"/>
<circle cx="146.32" cy="572.76" r="3" fill="#b23a48"/>
<circle cx="202.63" cy="574.65" r="3" fill="#b23a48"/>
<circle cx="258.95" cy="575.04" r="3" fill="#b23a48"/>
<circle cx="315.26" cy="575.51" r="3" fill="#b23a48"/>
<circle cx="371.58" cy="575.64" r="3" fill="#b23a48"/>
<circle cx="427.89" cy="575.71" r="3" fill="#b23a48"/>
<circle cx="484.21" cy="575.67" r="3" fill="#b23a48"/>
<circle cx="540.53" cy="575.81" r="3" fill="#b23a48"/>
<circle cx="596.84" cy="575.75" r="3" fill="#b23a48"/>
<circle cx="653.16" cy="575.65" r="3" fill="#b23a48"/>
<circle cx="709.47" cy="575.72" r="3" fill="#b23a48"/>
<circle cx="765.79" cy="575.61" r="3" fill="#b23a48"/>
<circle cx="822.11" cy="575.58" r="3" fill="#b23a48"/>
<circle cx="878.42" cy="575.63" r="3" fill="#b23a48"/>
<circle cx="934.74" cy="575.45" r="3" fill="#b23a48"/>
<circle cx="991.05" cy="575.49" r="3" fill="#b23a48"/>
<circle cx="1047.37" cy="575.47" r="3" fill="#b23a48"/>
<circle cx="1103.68" cy="575.35" r="3" fill="#b23a48"/>
<circle cx="1160.00" cy="575.26" r="3" fill="#b23a48"/>
<polyline points="90.00,124.19 146.32,521.19 202.63,543.55 258.95,552.29 315.26,555.51 371.58,558.67 427.89,560.06 484.21,560.55 540.53,561.88 596.84,561.89 653.16,562.32 709.47,563.15 765.79,563.49 822.11,564.02 878.42,564.79 934.74,565.25 991.05,566.17 1047.37,566.59 1103.68,566.49 1160.00,566.81" fill="none" stroke="#2468b2" stroke-width="3" stroke-linejoin="round" stroke-linecap="round"/>
<circle cx="90.00" cy="124.19" r="3" fill="#2468b2"/>
<circle cx="146.32" cy="521.19" r="3" fill="#2468b2"/>
<circle cx="202.63" cy="543.55" r="3" fill="#2468b2"/>
<circle cx="258.95" cy="552.29" r="3" fill="#2468b2"/>
<circle cx="315.26" cy="555.51" r="3" fill="#2468b2"/>
<circle cx="371.58" cy="558.67" r="3" fill="#2468b2"/>
<circle cx="427.89" cy="560.06" r="3" fill="#2468b2"/>
<circle cx="484.21" cy="560.55" r="3" fill="#2468b2"/>
<circle cx="540.53" cy="561.88" r="3" fill="#2468b2"/>
<circle cx="596.84" cy="561.89" r="3" fill="#2468b2"/>
<circle cx="653.16" cy="562.32" r="3" fill="#2468b2"/>
<circle cx="709.47" cy="563.15" r="3" fill="#2468b2"/>
<circle cx="765.79" cy="563.49" r="3" fill="#2468b2"/>
<circle cx="822.11" cy="564.02" r="3" fill="#2468b2"/>
<circle cx="878.42" cy="564.79" r="3" fill="#2468b2"/>
<circle cx="934.74" cy="565.25" r="3" fill="#2468b2"/>
<circle cx="991.05" cy="566.17" r="3" fill="#2468b2"/>
<circle cx="1047.37" cy="566.59" r="3" fill="#2468b2"/>
<circle cx="1103.68" cy="566.49" r="3" fill="#2468b2"/>
<circle cx="1160.00" cy="566.81" r="3" fill="#2468b2"/>
<polyline points="90.00,562.68 146.32,569.58 202.63,571.48 258.95,572.70 315.26,573.24 371.58,573.04 427.89,573.78 484.21,573.39 540.53,573.21 596.84,573.07 653.16,572.71 709.47,572.32 765.79,572.70 822.11,572.79 878.42,573.84 934.74,573.29 991.05,574.12 1047.37,574.21 1103.68,573.53 1160.00,573.91" fill="none" stroke="#8a5fbf" stroke-width="3" stroke-linejoin="round" stroke-linecap="round"/>
<circle cx="90.00" cy="562.68" r="3" fill="#8a5fbf"/>
<circle cx="146.32" cy="569.58" r="3" fill="#8a5fbf"/>
<circle cx="202.63" cy="571.48" r="3" fill="#8a5fbf"/>
<circle cx="258.95" cy="572.70" r="3" fill="#8a5fbf"/>
<circle cx="315.26" cy="573.24" r="3" fill="#8a5fbf"/>
<circle cx="371.58" cy="573.04" r="3" fill="#8a5fbf"/>
<circle cx="427.89" cy="573.78" r="3" fill="#8a5fbf"/>
<circle cx="484.21" cy="573.39" r="3" fill="#8a5fbf"/>
<circle cx="540.53" cy="573.21" r="3" fill="#8a5fbf"/>
<circle cx="596.84" cy="573.07" r="3" fill="#8a5fbf"/>
<circle cx="653.16" cy="572.71" r="3" fill="#8a5fbf"/>
<circle cx="709.47" cy="572.32" r="3" fill="#8a5fbf"/>
<circle cx="765.79" cy="572.70" r="3" fill="#8a5fbf"/>
<circle cx="822.11" cy="572.79" r="3" fill="#8a5fbf"/>
<circle cx="878.42" cy="573.84" r="3" fill="#8a5fbf"/>
<circle cx="934.74" cy="573.29" r="3" fill="#8a5fbf"/>
<circle cx="991.05" cy="574.12" r="3" fill="#8a5fbf"/>
<circle cx="1047.37" cy="574.21" r="3" fill="#8a5fbf"/>
<circle cx="1103.68" cy="573.53" r="3" fill="#8a5fbf"/>
<circle cx="1160.00" cy="573.91" r="3" fill="#8a5fbf"/>
<line x1="730" y1="24" x2="758" y2="24" stroke="#1b7f5c" stroke-width="4" stroke-linecap="round"/>
<text x="768" y="28" font-family="Arial, sans-serif" font-size="13" fill="#28313b">All long</text>
<line x1="920" y1="24" x2="948" y2="24" stroke="#b23a48" stroke-width="4" stroke-linecap="round"/>
<text x="958" y="28" font-family="Arial, sans-serif" font-size="13" fill="#28313b">All short</text>
<line x1="730" y1="48" x2="758" y2="48" stroke="#2468b2" stroke-width="4" stroke-linecap="round"/>
<text x="768" y="52" font-family="Arial, sans-serif" font-size="13" fill="#28313b">Winner long</text>
<line x1="920" y1="48" x2="948" y2="48" stroke="#8a5fbf" stroke-width="4" stroke-linecap="round"/>
<text x="958" y="52" font-family="Arial, sans-serif" font-size="13" fill="#28313b">Winner short</text>
<text x="625.0" y="694" text-anchor="middle" font-family="Arial, sans-serif" font-size="14" fill="#38414c">Forward holding window</text>
<text x="26" y="350.0" text-anchor="middle" font-family="Arial, sans-serif" font-size="14" fill="#38414c" transform="rotate(-90 26 350.0)">Annual beat</text>
</svg>
